<svg width="27" height="32" viewBox="0 0 27 32" fill="none" xmlns="http://www.w3.org/2000/svg">
<path id="fms logo" d="M26.999 28.1389C27.0029 28.0489 26.9948 27.9751 26.9827 27.9138C26.9664 27.8522 26.922 27.8235 26.8529 27.8195C26.7961 27.8153 26.7474 27.836 26.7151 27.8769C26.6865 27.9218 26.6583 28.008 26.6339 28.1389C26.5892 28.4217 26.5445 28.6431 26.5001 28.807C26.4554 28.9708 26.3945 29.1142 26.3256 29.2331C26.2528 29.3561 26.1553 29.4912 26.0254 29.6388C25.9768 29.7002 25.8753 29.774 25.7131 29.86C25.5549 29.95 25.3359 30.0281 25.056 30.0977C24.7761 30.1632 24.4354 30.2001 24.0296 30.2041C23.7823 30.2041 23.5147 30.2081 23.2226 30.2124C22.9306 30.2166 22.6467 30.2206 22.3626 30.2206C22.0827 30.2246 21.8353 30.2288 21.6203 30.2288C22.6588 29.4296 23.5552 28.5693 24.3137 27.6554C25.0723 26.7418 25.6603 25.8034 26.074 24.8447C26.492 23.8816 26.7028 22.9313 26.707 21.993C26.7028 20.6365 26.4717 19.4114 26.0173 18.3174C25.5631 17.2235 24.918 16.2851 24.0866 15.5024C23.255 14.7199 22.2693 14.1214 21.1335 13.7035C19.9938 13.2856 18.7363 13.0726 17.3611 13.0686C16.2821 13.0726 15.2683 13.2365 14.3231 13.5561C13.374 13.8758 12.5139 14.3224 11.7393 14.896C10.9644 15.4697 10.2992 16.1417 9.73955 16.912C9.18365 17.6823 8.74968 18.5221 8.44951 19.4278C8.14933 20.3335 7.99529 21.2798 7.99134 22.2633C7.99529 23.0171 8.10466 23.7672 8.332 24.5088C8.55491 25.2544 8.8837 25.9755 9.30953 26.668C9.73536 27.3647 10.2505 28.016 10.8548 28.6185C11.4594 29.2207 12.1449 29.7575 12.9074 30.2288C12.587 30.2288 12.2421 30.2246 11.8731 30.2166C11.5038 30.2081 11.1348 30.2041 10.7657 30.2041C10.2303 30.2041 9.78004 30.1468 9.41913 30.0321C9.0538 29.9214 8.78225 29.7658 8.59959 29.565C8.51861 29.483 8.42507 29.3314 8.31175 29.1102C8.1982 28.8888 8.10884 28.5651 8.03997 28.1389C8.01553 28.008 7.99133 27.9218 7.95876 27.8769C7.92618 27.836 7.88174 27.8153 7.82077 27.8195C7.7519 27.8235 7.70722 27.8522 7.69512 27.9138C7.67883 27.9751 7.67068 28.0489 7.67487 28.1389C7.67487 28.1841 7.68302 28.303 7.69512 28.4995C7.71141 28.6963 7.72746 28.9299 7.75189 29.2085C7.77632 29.487 7.80053 29.77 7.82892 30.0608C7.85731 30.3475 7.88174 30.6098 7.91013 30.8435C7.93852 31.0811 7.9669 31.249 7.99134 31.3597C8.04392 31.5686 8.1128 31.7202 8.19819 31.8105C8.28313 31.9005 8.40901 31.9539 8.57934 31.9743C8.75363 31.9948 8.99307 32.003 9.30534 31.999C9.91802 31.999 10.5184 31.9948 11.1064 31.9866C11.6904 31.9743 12.2259 31.9661 12.7126 31.9539C13.2036 31.9414 13.6092 31.9334 13.9296 31.9252C14.2096 31.9497 14.453 31.9621 14.6677 31.9661C14.8788 31.9743 15.0612 31.9743 15.2194 31.9743C15.2804 31.9743 15.3169 31.9539 15.3372 31.917C15.3574 31.8761 15.3656 31.8145 15.3656 31.7285L15.4142 30.9417C14.9477 30.6345 14.4732 30.2493 13.9945 29.7904C13.5159 29.3314 13.0575 28.811 12.6154 28.2292C12.1772 27.6514 11.7837 27.0245 11.4349 26.3485C11.0903 25.6765 10.8143 24.9758 10.6117 24.2424C10.4088 23.5048 10.3073 22.759 10.3034 21.993C10.3073 20.6447 10.4818 19.4687 10.8265 18.4568C11.1713 17.4447 11.6581 16.6046 12.2787 15.9285C12.8993 15.2525 13.6255 14.7486 14.4611 14.4084C15.2965 14.0726 16.2051 13.9045 17.1908 13.9045C17.9657 13.9045 18.7038 14.0314 19.4137 14.2813C20.1236 14.5314 20.7808 14.896 21.3809 15.3755C21.9812 15.8547 22.5046 16.4367 22.9506 17.121C23.3969 17.8052 23.7457 18.5837 23.9933 19.4565C24.2407 20.3253 24.3663 21.2758 24.3705 22.3124C24.3663 23.4024 24.2162 24.3898 23.9284 25.2748C23.6364 26.16 23.2429 26.9507 22.7479 27.6514C22.2491 28.3521 21.6892 28.9708 21.0647 29.5159C20.4401 30.0568 19.7909 30.532 19.1135 30.9417L19.1866 31.7285C19.2189 31.7776 19.2352 31.8227 19.2392 31.8596C19.2473 31.8923 19.2555 31.921 19.2636 31.9414C19.2718 31.9621 19.2962 31.9743 19.3325 31.9743C19.4907 31.9743 19.6734 31.9743 19.8884 31.9661C20.0992 31.9621 20.3426 31.9497 20.6223 31.9252C20.8617 31.9292 21.158 31.9374 21.5068 31.9457C21.8598 31.9539 22.2451 31.9621 22.6667 31.9701C23.0886 31.9783 23.531 31.9866 23.9891 31.9908C24.4517 31.9948 24.9101 31.999 25.3683 31.999C25.6808 32.003 25.9242 31.9948 26.0945 31.9743C26.2648 31.9539 26.3945 31.9005 26.4757 31.8105C26.5608 31.7202 26.6299 31.5686 26.6825 31.3597C26.707 31.249 26.7354 31.0811 26.7637 30.8435C26.7921 30.6098 26.8205 30.3475 26.8489 30.0608C26.8731 29.77 26.9015 29.487 26.922 29.2085C26.9462 28.9299 26.9625 28.6963 26.9788 28.4995C26.9909 28.303 26.999 28.1841 26.999 28.1389ZM3.12203 17.0629C2.97287 17.498 2.8065 17.8856 2.62314 18.2347C2.43954 18.5795 2.2136 18.8637 1.94903 19.0792C1.68888 19.299 1.36055 19.437 0.97242 19.4929C0.861426 19.5059 0.737867 19.5188 0.5929 19.5272C0.4477 19.5402 0.328329 19.5446 0.230133 19.5446C0.166143 19.5446 0.110761 19.5576 0.0681782 19.5834C0.0253629 19.6093 0 19.6481 0 19.6998C0 19.7773 0.038162 19.8288 0.119371 19.8591C0.195927 19.8935 0.31972 19.9066 0.486094 19.9066C0.789059 19.9066 1.09598 19.9022 1.40732 19.8935C1.71447 19.885 2.00464 19.8763 2.27759 19.8678C2.55054 19.8591 2.78509 19.8504 2.97706 19.842C3.16903 19.8333 3.30562 19.8288 3.37799 19.8288C3.45059 19.8288 3.56577 19.8333 3.72353 19.842C3.87711 19.8504 4.05628 19.8591 4.25244 19.8678C4.4486 19.8763 4.64476 19.885 4.84092 19.8935C5.0415 19.9022 5.21648 19.9066 5.37425 19.9066C5.4892 19.9066 5.58321 19.8935 5.65139 19.8591C5.71957 19.8288 5.75819 19.7773 5.75819 19.6998C5.75819 19.6481 5.73678 19.6093 5.69839 19.5834C5.65558 19.5576 5.59158 19.5446 5.50223 19.5446H5.24627C5.09688 19.5446 4.94773 19.5188 4.80276 19.4671C4.65337 19.4109 4.52958 19.3291 4.43162 19.2172C4.32923 19.1093 4.27804 18.9673 4.27385 18.7948C4.27385 18.5579 4.30364 18.2951 4.36763 17.9977C4.4272 17.7004 4.51678 17.3904 4.63196 17.0629L6.1675 12.4871C6.19309 12.4225 6.2273 12.3708 6.26569 12.3362C6.30827 12.2974 6.35947 12.2803 6.42346 12.2803H11.9257C11.9897 12.2803 12.0367 12.2932 12.0707 12.319C12.1049 12.3449 12.1305 12.3837 12.156 12.4354L14.536 18.7948C14.6086 19.0017 14.6214 19.1655 14.5744 19.2816C14.5318 19.3982 14.4678 19.4671 14.3827 19.4929C14.3313 19.5059 14.2887 19.5272 14.2547 19.5531C14.2205 19.5834 14.2035 19.6222 14.2035 19.6739C14.2035 19.747 14.2717 19.7945 14.4039 19.8117C14.536 19.8333 14.728 19.8462 14.9712 19.8547C15.4191 19.8678 15.8584 19.8763 16.2891 19.885C16.7243 19.8935 17.1252 19.8979 17.5005 19.8979C17.8717 19.9022 18.1872 19.9066 18.4473 19.9066H18.989C19.1342 19.9066 19.2536 19.8935 19.3518 19.8591C19.4456 19.8288 19.4968 19.7773 19.501 19.6998C19.501 19.6351 19.4754 19.5963 19.4328 19.5747C19.3858 19.5531 19.3218 19.5446 19.245 19.5446C19.1128 19.5446 18.9593 19.5359 18.7801 19.5146C18.6009 19.4929 18.4176 19.4541 18.2214 19.3895C18.089 19.3549 17.9398 19.2903 17.7821 19.1998C17.6199 19.1051 17.4493 18.9586 17.266 18.7605C17.0824 18.5579 16.8862 18.2779 16.6772 17.9159C16.4683 17.5584 16.2507 17.093 16.0204 16.5199C15.8242 16.0244 15.5938 15.4385 15.3337 14.762C15.0694 14.0855 14.7878 13.3531 14.4848 12.5647C14.1821 11.7761 13.8708 10.9574 13.5508 10.1215C13.2267 9.28143 12.9111 8.44557 12.5996 7.61841C12.284 6.79525 11.9855 6.00688 11.6997 5.25705C11.4182 4.51169 11.1622 3.83521 10.9319 3.22782C10.7015 2.62444 10.5139 2.12048 10.3604 1.71971C10.2068 1.32341 10.1086 1.06038 10.0574 0.931102C9.95502 0.66831 9.87404 0.465927 9.81005 0.332181C9.74629 0.19867 9.68649 0.108408 9.63949 0.0651581C9.59272 0.0179121 9.54572 -0.00371158 9.49452 0.000519413C9.44333 -0.00371158 9.39632 0.0221437 9.34955 0.0738558C9.30255 0.121102 9.24275 0.220293 9.17876 0.366968C9.11477 0.513172 9.03379 0.72872 8.93141 1.00867L3.12203 17.0629ZM6.70501 11.3494C6.66662 11.3494 6.6366 11.3365 6.61961 11.3064C6.60263 11.2806 6.60263 11.2333 6.62823 11.1687L8.88021 4.18849C9.00819 3.80089 9.13618 3.80089 9.26416 4.18849L11.6953 11.1687C11.7125 11.2202 11.7125 11.2634 11.7039 11.298C11.6911 11.3323 11.6569 11.3494 11.5929 11.3494H6.70501Z" fill="#6B6B6B"/>
</svg>
