<svg width="105" height="58" viewBox="0 0 105 58" fill="none" xmlns="http://www.w3.org/2000/svg">
<g id="Group">
<g id="Group_2">
<g id="Group_3">
<path id="Vector" d="M7.90565 0.177274V0.930283C8.25658 0.96379 8.53169 1.05898 8.72744 1.22122C8.92319 1.38346 9.06424 1.59333 9.14183 1.85432C9.22295 2.11356 9.25999 2.40101 9.25646 2.72196V3.73943H9.16653C8.9267 3.33736 8.62516 2.99173 8.25659 2.69193C7.88803 2.39391 7.48243 2.16464 7.03274 1.99888C6.58481 1.83311 6.12454 1.75205 5.6484 1.74852C5.08761 1.75205 4.56917 1.86312 4.08598 2.08003C3.60102 2.30047 3.16719 2.60736 2.77569 3.0059C2.38949 3.40445 2.05794 3.86819 1.77755 4.40429C1.50068 4.94215 1.2873 5.52764 1.13917 6.16249C0.991037 6.80087 0.91346 7.46744 0.91346 8.16578C0.916987 8.95406 1.00868 9.66297 1.19385 10.2925C1.37901 10.9274 1.62946 11.4812 1.95041 11.952C2.27136 12.4282 2.63638 12.8231 3.04903 13.1441C3.46169 13.4597 3.90078 13.6961 4.36282 13.8548C4.82661 14.0135 5.29217 14.0946 5.76125 14.0946C6.30088 14.0911 6.78407 13.9994 7.20554 13.8142C7.62525 13.6255 7.99737 13.3716 8.31832 13.0471C8.64457 12.7226 8.93376 12.3505 9.18946 11.9273H9.25646V13.1212C9.25999 13.4421 9.22295 13.7296 9.14183 13.9871C9.06424 14.2463 8.92319 14.4597 8.72744 14.6219C8.53169 14.7841 8.25658 14.8812 7.90565 14.9147V15.6658H12.5084V14.9147C12.1574 14.8812 11.8858 14.7841 11.6848 14.6219C11.4908 14.4597 11.3497 14.2463 11.2721 13.9871C11.1963 13.7296 11.1557 13.4421 11.1575 13.1212V11.9273H11.2245C11.4784 12.3505 11.7712 12.7226 12.0957 13.0471C12.4202 13.3716 12.7887 13.6255 13.2084 13.8142C13.6299 13.9994 14.1113 14.0911 14.6545 14.0946C15.1218 14.0946 15.5874 14.0135 16.0529 13.8548C16.5132 13.6961 16.9523 13.4597 17.365 13.1441C17.7794 12.8231 18.1427 12.4282 18.4636 11.952C18.7846 11.4812 19.035 10.9274 19.2202 10.2925C19.4036 9.66297 19.4953 8.95406 19.5006 8.16578C19.5006 7.46744 19.4229 6.80087 19.2748 6.16249C19.1284 5.52764 18.915 4.94215 18.6364 4.40429C18.3613 3.86819 18.0263 3.40445 17.6383 3.0059C17.2468 2.60736 16.8112 2.30047 16.328 2.08003C15.8466 1.86312 15.3264 1.75205 14.7656 1.74852C14.2895 1.75205 13.8292 1.83311 13.383 1.99888C12.9351 2.16464 12.5278 2.39391 12.1574 2.69193C11.7924 2.99173 11.4873 3.33736 11.2474 3.73943H11.1575V2.72196C11.1557 2.40101 11.1963 2.11356 11.2721 1.85432C11.3497 1.59333 11.4908 1.38346 11.6848 1.22122C11.8858 1.05898 12.1574 0.96379 12.5084 0.930283V0.177274H7.90565ZM11.1575 6.94898C11.1663 6.14836 11.2615 5.48179 11.4538 4.94569C11.6425 4.40606 11.8894 3.97928 12.1944 3.66538C12.4978 3.34972 12.8258 3.12404 13.1749 2.98825C13.5259 2.8507 13.8644 2.78539 14.1907 2.78891C14.4658 2.78539 14.7515 2.82244 15.039 2.89827C15.3299 2.97939 15.6068 3.12404 15.8748 3.33742C16.1411 3.54727 16.3809 3.85062 16.5943 4.24563C16.8042 4.63889 16.9735 5.14854 17.0987 5.77458C17.2221 6.40238 17.2839 7.16948 17.2874 8.07591C17.2839 8.91356 17.2168 9.62422 17.0845 10.2079C16.9523 10.7934 16.7759 11.2695 16.5537 11.6469C16.3333 12.019 16.0882 12.3065 15.8202 12.5128C15.5539 12.7191 15.2858 12.8584 15.0125 12.9413C14.7427 13.0224 14.4887 13.0577 14.256 13.0559C14.0937 13.0577 13.8839 13.0365 13.6299 12.9889C13.3742 12.936 13.1061 12.8267 12.8204 12.6609C12.5383 12.4899 12.2721 12.2324 12.0216 11.8814C11.7659 11.5358 11.5649 11.0668 11.4044 10.4778C11.2475 9.887 11.1628 9.14626 11.1575 8.25393V6.94898ZM9.25646 8.25393C9.25117 9.17094 9.15595 9.94339 8.97608 10.5624C8.79091 11.1813 8.54759 11.6751 8.24427 12.0402C7.94271 12.4052 7.61113 12.668 7.24962 12.8267C6.88458 12.9819 6.52309 13.0577 6.15805 13.0559C5.9288 13.0577 5.6784 13.0224 5.40859 12.943C5.14054 12.8637 4.87249 12.7226 4.60268 12.5198C4.33639 12.317 4.09301 12.0261 3.86904 11.654C3.64685 11.2801 3.46876 10.8022 3.33297 10.2149C3.20071 9.63298 3.13016 8.91709 3.12664 8.07591C3.13016 7.18711 3.19716 6.43233 3.32237 5.80805C3.4511 5.18907 3.62395 4.6794 3.84262 4.28438C4.05953 3.8876 4.29934 3.5808 4.56915 3.36389C4.8372 3.1417 5.11404 2.99181 5.40149 2.90892C5.68717 2.82428 5.95877 2.78539 6.22505 2.78891C6.56717 2.78539 6.91458 2.85593 7.26727 2.99525C7.62173 3.13809 7.94624 3.36735 8.24427 3.6883C8.54759 4.00926 8.78741 4.43607 8.97258 4.97217C9.15598 5.5065 9.25117 6.16599 9.25646 6.94898V8.25393ZM21.5144 0.177274V0.930283C21.8566 0.967317 22.1263 1.06606 22.3221 1.22477C22.5143 1.38701 22.6501 1.59328 22.7277 1.84722C22.8088 2.10292 22.8459 2.39396 22.8423 2.72196V13.1212C22.8459 13.4492 22.8088 13.7384 22.7277 13.9959C22.6501 14.2498 22.5143 14.4562 22.3221 14.6149C22.1263 14.7771 21.8566 14.8759 21.5144 14.9147V15.6658H26.0501V14.9147C25.7062 14.8759 25.4364 14.7771 25.2512 14.6219C25.0573 14.4632 24.925 14.2568 24.8509 14.0029C24.7769 13.7472 24.7416 13.4527 24.7451 13.1212V12.5463L33.6172 4.35844H33.6824V13.1212C33.6877 13.4421 33.6507 13.7296 33.5766 13.9871C33.4991 14.2463 33.3668 14.4597 33.171 14.6219C32.9788 14.7841 32.7055 14.8812 32.3563 14.9147V15.6658H36.892V14.9147C36.527 14.8688 36.2501 14.7665 36.0614 14.6114C35.8745 14.4562 35.7457 14.2499 35.6787 13.9995C35.6117 13.7473 35.5835 13.4527 35.5853 13.1212V2.72196C35.5835 2.39396 35.6152 2.10292 35.6857 1.84722C35.7528 1.59328 35.8815 1.38701 36.0737 1.22477C36.2606 1.06606 36.534 0.967317 36.892 0.930283V0.177274H32.3563V0.930283C32.6032 0.951445 32.8254 1.02549 33.0229 1.14717C33.2275 1.26532 33.3844 1.42404 33.5026 1.61979C33.6207 1.81377 33.6807 2.03238 33.6824 2.27926V2.98825L24.8104 11.1532H24.7451V2.72196C24.7416 2.39396 24.7751 2.10292 24.8403 1.84722C24.9091 1.59328 25.0396 1.38701 25.2301 1.22477C25.4188 1.06606 25.6921 0.967317 26.0501 0.930283V0.177274H21.5144ZM40.8739 4.02692H41.4947C41.7627 3.41852 42.0819 2.9212 42.4452 2.52618C42.8102 2.13292 43.1946 1.82256 43.6003 1.59331C44.0094 1.36759 44.4114 1.20185 44.8065 1.09604C45.205 0.991995 45.5683 0.924942 45.9051 0.900254C46.2402 0.870274 46.517 0.8597 46.7375 0.863227C47.0549 0.863227 47.3441 0.900322 47.5981 0.970862C47.8555 1.03787 48.0848 1.12952 48.2911 1.24415C48.4974 1.35877 48.6773 1.47869 48.8413 1.61624C49.187 1.89663 49.4568 2.24228 49.6507 2.65846C49.8465 3.07993 49.9435 3.5473 49.947 4.07105C49.947 4.34086 49.91 4.62126 49.8324 4.91577C49.7548 5.21027 49.6331 5.50651 49.4638 5.79395C49.2981 6.0814 49.0829 6.34765 48.8184 6.59454C48.3899 6.43935 47.9737 6.32124 47.5751 6.24365C47.1783 6.16606 46.7781 6.12902 46.3848 6.12902C45.891 6.12902 45.4696 6.15196 45.1221 6.19252C44.7765 6.23661 44.489 6.29655 44.2598 6.37238C43.87 6.51699 43.5738 6.68268 43.378 6.87137C43.1841 7.0583 43.0571 7.23821 42.9954 7.41633C42.9319 7.59267 42.9072 7.74085 42.9107 7.85547C42.9107 8.0036 42.9478 8.15695 43.0254 8.32271C43.0977 8.48672 43.2246 8.64373 43.3957 8.78834C43.572 8.93471 43.7995 9.05642 44.087 9.14988C44.3744 9.24158 44.7254 9.28915 45.1451 9.29444C45.6653 9.28915 46.1661 9.22738 46.6458 9.11275C47.129 8.99812 47.5716 8.85008 47.9808 8.67726C48.3899 8.50091 48.7408 8.32273 49.0388 8.14286C49.4744 8.49732 49.8165 8.92941 50.0616 9.44082C50.305 9.95046 50.4302 10.543 50.4337 11.2184C50.4302 11.7898 50.3332 12.3064 50.1498 12.7667C49.9646 13.2287 49.7178 13.6238 49.4092 13.9553C49.0988 14.2833 48.7514 14.5373 48.3722 14.7136C47.9878 14.8864 47.6016 14.9799 47.203 14.9799C46.8486 14.9764 46.5135 14.9252 46.1891 14.8211C45.8681 14.7206 45.5613 14.5849 45.2668 14.4191C44.9758 14.2498 44.6954 14.0681 44.4309 13.8706C44.1611 13.6713 43.9053 13.4721 43.6638 13.2764C43.1576 12.8708 42.6921 12.5498 42.2688 12.3135C41.8456 12.0772 41.4471 11.9555 41.0732 11.9485C40.7099 11.952 40.3731 12.049 40.0698 12.2394C39.7682 12.4281 39.4808 12.6821 39.2092 12.9995C38.9394 13.3205 38.6661 13.6784 38.3962 14.0717L38.86 14.6272C38.9024 14.5743 38.9623 14.4967 39.0381 14.3979C39.1157 14.2974 39.2092 14.1934 39.3115 14.0876C39.4173 13.98 39.5302 13.8883 39.6501 13.8142C39.7682 13.7384 39.8899 13.6996 40.0116 13.696C40.1738 13.6996 40.3501 13.7384 40.5353 13.8072C40.724 13.8813 40.9145 13.973 41.112 14.0876C41.3059 14.2022 41.5017 14.3185 41.6939 14.449C42.4311 14.9252 43.2052 15.2744 44.02 15.5036C44.8347 15.7329 45.7288 15.844 46.6934 15.844C47.2983 15.844 47.8926 15.7734 48.4675 15.6288C49.0477 15.4877 49.5855 15.2867 50.0916 15.0169C50.5924 14.7506 51.0351 14.4226 51.4178 14.0382C51.8005 13.6555 52.1002 13.2199 52.3171 12.735C52.5323 12.243 52.6434 11.7087 52.6451 11.1302C52.6434 10.5395 52.5393 9.99105 52.34 9.49022C52.1372 8.98763 51.8639 8.54148 51.5148 8.15351C51.1674 7.76731 50.7688 7.44632 50.3227 7.19062V7.05833C50.6436 6.79028 50.924 6.50459 51.1709 6.21362C51.4142 5.92265 51.6065 5.59821 51.7458 5.24728C51.8869 4.89282 51.9556 4.49601 51.9609 4.04985C51.9609 3.51728 51.8533 3.01292 51.6435 2.52973C51.4283 2.0483 51.1074 1.61623 50.6806 1.23532C50.2486 0.856171 49.7107 0.558125 49.0582 0.335927C48.4057 0.119019 47.6421 0.00438842 46.7604 0.000861462C46.3442 0.000861462 45.9598 0.0291383 45.6141 0.0855696C45.2632 0.140238 44.9388 0.214304 44.6372 0.306005C44.3304 0.395942 44.0376 0.491131 43.7519 0.59694C43.3199 0.752126 42.9654 0.849145 42.685 0.889705C42.4046 0.930265 42.1806 0.910898 42.0114 0.833305C41.8403 0.757475 41.7045 0.619908 41.6058 0.420635H40.8739V4.02692ZM48.0001 7.50093C47.7638 7.73018 47.5099 7.91897 47.2401 8.06181C46.9667 8.20641 46.7005 8.3157 46.4324 8.38977C46.1661 8.46736 45.9228 8.51855 45.7023 8.54853C45.4819 8.57322 45.3038 8.58556 45.168 8.58556C44.7695 8.58203 44.4696 8.52907 44.2757 8.4409C44.0834 8.34919 43.9582 8.24693 43.8983 8.13231C43.8401 8.02121 43.8101 7.92601 43.8172 7.85547C43.8137 7.72498 43.8648 7.5892 43.9723 7.44635C44.0799 7.30528 44.2633 7.18533 44.5261 7.08481C44.7871 6.98077 45.1486 6.92958 45.6089 6.92605C46.0092 6.92252 46.406 6.96314 46.8045 7.04779C47.2031 7.13243 47.6016 7.28402 48.0001 7.50093ZM54.2164 0.177274V0.930283C54.5603 0.967317 54.8283 1.06606 55.0241 1.22477C55.2163 1.38701 55.3521 1.59328 55.4297 1.84722C55.5108 2.10292 55.5496 2.39396 55.5443 2.72196V13.1212C55.5496 13.4492 55.5108 13.7384 55.4297 13.9959C55.3521 14.2498 55.2163 14.4562 55.0241 14.6149C54.8283 14.7771 54.5603 14.8759 54.2164 14.9147V15.6658H58.7539V14.9147C58.41 14.8759 58.1402 14.7771 57.9532 14.6219C57.761 14.4632 57.627 14.2568 57.5529 14.0029C57.4806 13.7472 57.4436 13.4527 57.4471 13.1212V12.5463L66.3192 4.35844H66.3862V13.1212C66.3897 13.4421 66.3527 13.7296 66.2786 13.9871C66.2028 14.2463 66.0688 14.4597 65.8748 14.6219C65.6826 14.7841 65.4092 14.8812 65.0601 14.9147V15.6658H69.5939V14.9147C69.2307 14.8688 68.9538 14.7665 68.7651 14.6114C68.5764 14.4562 68.4477 14.2499 68.3825 13.9995C68.3137 13.7473 68.2854 13.4527 68.289 13.1212V2.72196C68.2854 2.39396 68.319 2.10292 68.3877 1.84722C68.4565 1.59328 68.5835 1.38701 68.7757 1.22477C68.9644 1.06606 69.2359 0.967317 69.5939 0.930283V0.177274H65.0601V0.930283C65.3052 0.951445 65.5274 1.02549 65.7266 1.14717C65.9294 1.26532 66.0881 1.42404 66.2045 1.61979C66.3244 1.81377 66.3826 2.03238 66.3862 2.27926V2.98825L57.5141 11.1532H57.4471V2.72196C57.4436 2.39396 57.4771 2.10292 57.5441 1.84722C57.6129 1.59328 57.7416 1.38701 57.9338 1.22477C58.1225 1.06606 58.3941 0.967317 58.7539 0.930283V0.177274H54.2164ZM71.897 0.177274V0.930283C72.3679 0.984951 72.703 1.16481 72.9076 1.46813C73.1086 1.76969 73.2056 2.18763 73.202 2.72196V13.1212C73.2056 13.6643 73.098 14.0875 72.8881 14.3891C72.6783 14.6924 72.345 14.8688 71.897 14.9147V15.6658H76.4098V14.9147C76.0659 14.8917 75.7979 14.8035 75.6092 14.6554C75.4187 14.5072 75.2847 14.3009 75.2124 14.0435C75.1383 13.786 75.1013 13.4756 75.1048 13.1212V6.92605H75.4805C75.7503 6.92252 76.0306 6.93311 76.3216 6.9578C76.6091 6.98426 76.9 7.04771 77.1963 7.15176C77.489 7.25404 77.7853 7.4198 78.078 7.65258C78.3673 7.88007 78.6565 8.1975 78.9334 8.6031C79.2085 9.0087 79.473 9.52548 79.7287 10.1568C80.0302 10.9133 80.3036 11.5869 80.5557 12.1847C80.8061 12.7826 81.0601 13.3029 81.3176 13.7473C81.5768 14.1917 81.8678 14.5637 82.1958 14.8653C82.5203 15.1651 82.9117 15.3925 83.3614 15.5548C83.8146 15.717 84.3578 15.814 84.9944 15.844C85.2466 15.8546 85.4741 15.8546 85.684 15.837C85.8921 15.8211 86.1054 15.7876 86.3223 15.7329V14.7365C85.8921 14.7912 85.5076 14.7612 85.1725 14.6448C84.8322 14.5267 84.5342 14.3485 84.2714 14.1087C84.014 13.8706 83.7847 13.5938 83.5854 13.2799C83.3897 12.9625 83.2169 12.6345 83.0687 12.2959C82.9224 11.952 82.7901 11.6205 82.6754 11.2996C82.5608 10.9821 82.4586 10.6946 82.3616 10.4442C82.1729 9.95394 81.9524 9.4902 81.6985 9.0458C81.4481 8.60317 81.1412 8.20104 80.7868 7.84482C80.4288 7.4833 80.0002 7.18528 79.5012 6.94015C78.9986 6.69679 78.4043 6.53103 77.7148 6.43933V6.30705C77.9846 6.23298 78.2509 6.1114 78.5189 5.94916C78.7852 5.78163 79.0427 5.59467 79.2931 5.38128C79.54 5.17143 79.7657 4.94921 79.9756 4.72525C80.1819 4.49953 80.36 4.28972 80.5028 4.09398C80.7144 3.79595 80.912 3.51547 81.0971 3.25271C81.2823 2.99171 81.4798 2.78189 81.6862 2.61788C81.8978 2.45564 82.1446 2.37105 82.4286 2.36752C82.5644 2.36047 82.7125 2.39038 82.8677 2.44857C83.0264 2.51206 83.1657 2.6338 83.2962 2.82249C83.4196 3.00942 83.5096 3.29329 83.5554 3.6742H84.3085V0.244223C84.0651 0.148995 83.8306 0.0820496 83.6013 0.0485434C83.372 0.0150373 83.1586 -0.00442898 82.9594 0.000861462C82.4585 0.00791538 82.0229 0.110226 81.6509 0.316553C81.277 0.519353 80.9578 0.789154 80.688 1.12069C80.4147 1.45751 80.1784 1.8138 79.9791 2.20177C79.7763 2.58797 79.5999 2.96887 79.4412 3.34097C79.3407 3.57022 79.2243 3.81705 79.0832 4.07805C78.9439 4.34081 78.7693 4.60002 78.5595 4.85043C78.3532 5.10437 78.0957 5.32837 77.7853 5.52411C77.4767 5.72339 77.1029 5.87149 76.6602 5.97553C76.2211 6.07429 75.7062 6.10252 75.1048 6.06196V2.72196C75.1013 2.54209 75.1154 2.35341 75.1436 2.16119C75.1718 1.96721 75.23 1.78552 75.3182 1.60741C75.4028 1.43459 75.5369 1.2865 75.7132 1.16482C75.886 1.0449 76.1188 0.967317 76.4098 0.930283V0.177274H71.897ZM95.0392 0.000861462C94.1839 0.00438842 93.3957 0.11555 92.6762 0.328931C91.9567 0.545839 91.3042 0.849092 90.7204 1.23177C90.1385 1.61973 89.6306 2.06598 89.188 2.57386C88.7454 3.0835 88.3768 3.63715 88.0805 4.22615C87.7825 4.81692 87.5621 5.42538 87.4104 6.05141C87.2623 6.67921 87.1847 7.30172 87.1847 7.9207C87.1847 8.54144 87.2623 9.16391 87.4104 9.79171C87.5621 10.4177 87.7825 11.0262 88.0805 11.617C88.3768 12.2077 88.7454 12.7562 89.188 13.2694C89.6306 13.7773 90.1385 14.2234 90.7204 14.6114C91.3042 14.994 91.9567 15.2974 92.6762 15.5107C93.3957 15.7294 94.1839 15.8387 95.0392 15.844C95.8963 15.8387 96.6845 15.7294 97.404 15.5107C98.1271 15.2974 98.776 14.994 99.358 14.6114C99.9399 14.2234 100.453 13.7773 100.892 13.2694C101.335 12.7562 101.703 12.2077 101.998 11.617C102.298 11.0262 102.518 10.4177 102.67 9.79171C102.82 9.16391 102.894 8.54144 102.894 7.9207C102.894 7.30172 102.82 6.67921 102.67 6.05141C102.518 5.42538 102.298 4.81692 101.998 4.22615C101.703 3.63715 101.335 3.0835 100.892 2.57386C100.453 2.06598 99.9399 1.61973 99.358 1.23177C98.776 0.849092 98.1271 0.545839 97.404 0.328931C96.6845 0.11555 95.8963 0.00438842 95.0392 0.000861462ZM95.0392 0.863227C95.8116 0.863227 96.5329 1.01837 97.2083 1.32875C97.8873 1.63735 98.4886 2.09059 99.007 2.69193C99.5273 3.28975 99.9346 4.0269 100.233 4.90511C100.527 5.77803 100.679 6.78502 100.682 7.9207C100.679 9.05638 100.527 10.0598 100.233 10.938C99.9346 11.8127 99.5273 12.5533 99.007 13.1494C98.4886 13.7507 97.8873 14.2058 97.2083 14.5144C96.5329 14.8247 95.8116 14.9799 95.0392 14.9799C94.2721 14.9799 93.5473 14.8247 92.8719 14.5144C92.1929 14.2058 91.5951 13.7507 91.0714 13.1494C90.5529 12.5533 90.1473 11.8127 89.851 10.938C89.5512 10.0598 89.4014 9.05638 89.3978 7.9207C89.4014 6.78502 89.5512 5.77803 89.851 4.90511C90.1473 4.0269 90.5529 3.28975 91.0714 2.69193C91.5951 2.09059 92.1929 1.63735 92.8719 1.32875C93.5473 1.01837 94.2721 0.863227 95.0392 0.863227Z" fill="#277525"/>
</g>
</g>
<g id="Group_4">
<g id="Group_5">
<path id="Vector_2" d="M3.02438 24.0424H1.19212V24.3863C1.29441 24.3881 1.38964 24.4127 1.48134 24.4533C1.57127 24.4973 1.64533 24.5591 1.7 24.649C1.75819 24.7372 1.78645 24.8518 1.78998 24.9947V29.9835C1.78998 30.1069 1.77584 30.2269 1.74762 30.3415C1.71941 30.4561 1.66124 30.5549 1.57659 30.6343C1.49018 30.7154 1.36142 30.7647 1.19212 30.7824V31.1281H2.78985V30.7824C2.69462 30.7771 2.59937 30.7524 2.50591 30.7048C2.41421 30.6571 2.33838 30.576 2.27842 30.4614C2.2167 30.3468 2.18498 30.1881 2.18322 29.9835V24.4374H2.2132L4.87607 31.2091H5.20936L8.01328 24.4268H8.04326V29.9641C8.0415 30.1705 8.01153 30.3327 7.95333 30.4509C7.89337 30.5672 7.81751 30.6519 7.72757 30.7013C7.63763 30.7507 7.54241 30.7771 7.44718 30.7824V31.1281H9.51225V30.7824C9.40468 30.7771 9.30765 30.7471 9.21771 30.6907C9.12777 30.6325 9.05373 30.5461 9.00083 30.4279C8.9444 30.3098 8.91616 30.1546 8.9144 29.9641V25.2063C8.91264 25.0564 8.92853 24.9224 8.9638 24.806C8.99731 24.6896 9.05726 24.5961 9.14544 24.5203C9.23361 24.448 9.3553 24.4039 9.51225 24.3863V24.0424H7.69937L5.33104 29.8019H5.29046L3.02438 24.0424ZM13.8751 23.9613H13.6723C13.6229 24.0177 13.5594 24.0741 13.4801 24.1323C13.4007 24.1905 13.3143 24.2434 13.2226 24.2928C13.1327 24.3404 13.0463 24.3739 12.9634 24.3969V24.7407C13.0304 24.739 13.0886 24.7495 13.1344 24.7707C13.182 24.7918 13.205 24.8342 13.2067 24.8924C13.2085 24.91 13.2032 24.9347 13.1909 24.97C13.1803 25.0035 13.1538 25.0617 13.115 25.1463L10.8384 30.0647C10.8154 30.1176 10.7802 30.181 10.7343 30.2586C10.6885 30.3344 10.6303 30.4121 10.5632 30.4879C10.4945 30.5655 10.4169 30.6308 10.3305 30.6872C10.2423 30.7419 10.1454 30.7736 10.0378 30.7824V31.1281H11.6072V30.7824C11.4909 30.7594 11.4044 30.7224 11.348 30.6766C11.2898 30.6307 11.2528 30.5832 11.2369 30.532C11.2193 30.4826 11.2105 30.4385 11.2122 30.3997C11.2105 30.3856 11.2175 30.3539 11.2299 30.301C11.2458 30.2481 11.281 30.1634 11.3339 30.0435L11.7272 29.1846H15.2506L15.6562 30.0947C15.6862 30.1652 15.7108 30.2287 15.725 30.2798C15.7408 30.331 15.7479 30.368 15.7479 30.3874C15.7479 30.4667 15.7426 30.5302 15.7267 30.5831C15.7126 30.6343 15.6773 30.6784 15.6262 30.7101C15.5733 30.7419 15.4939 30.7665 15.3828 30.7824V31.1281H17.3668V30.7824C17.2451 30.7753 17.141 30.7383 17.0476 30.6713C16.9576 30.606 16.8765 30.5197 16.806 30.4086C16.7319 30.2992 16.6684 30.1741 16.6067 30.0347L13.8751 23.9613ZM15.069 28.7896H11.9106L13.4589 25.4585H13.5718L15.069 28.7896ZM16.4868 25.328H16.8307C16.8624 25.1605 16.9171 25.0105 16.9947 24.8748C17.0723 24.7425 17.1869 24.6349 17.3351 24.5573C17.4832 24.4797 17.6789 24.4392 17.924 24.4374H19.3613V29.9641C19.363 30.1158 19.3454 30.2498 19.3119 30.3644C19.2766 30.4791 19.2167 30.5743 19.1267 30.6448C19.0386 30.7154 18.9151 30.763 18.7546 30.7824V31.1281H20.8285V30.7824C20.6645 30.7665 20.5393 30.7207 20.4546 30.6466C20.3664 30.5743 20.3083 30.4791 20.2765 30.3627C20.2448 30.2445 20.2306 30.114 20.2324 29.9641V24.4374H21.6591C21.8795 24.4392 22.0629 24.4709 22.2058 24.5326C22.3486 24.5961 22.4597 24.6738 22.5408 24.7672C22.622 24.8625 22.6784 24.9594 22.7101 25.0582C22.7436 25.1604 22.7612 25.2504 22.763 25.328H23.1051V23.9613L20.8091 24.0424H18.7846L16.4868 23.9613V25.328ZM23.7647 24.0424V24.3863C23.9322 24.3916 24.0592 24.4286 24.1473 24.4991C24.2355 24.5696 24.2955 24.6667 24.3255 24.7902C24.359 24.9118 24.3749 25.0493 24.3713 25.2063V29.9641C24.3749 30.114 24.3554 30.2445 24.3166 30.3627C24.2779 30.4791 24.2144 30.5743 24.1244 30.6466C24.0362 30.7207 23.9164 30.7665 23.7647 30.7824V31.1281H29.4942L29.6053 29.6097H29.2615C29.2421 29.8354 29.1803 30.0224 29.0763 30.1687C28.9705 30.3151 28.8312 30.4315 28.6566 30.5144C28.4837 30.5955 28.2827 30.6519 28.0534 30.6854C27.8295 30.7171 27.5826 30.7348 27.3181 30.7331H25.2425V27.7369H26.5087C26.6198 27.7351 26.7167 27.7368 26.8014 27.7421C26.886 27.7457 26.9619 27.7633 27.0254 27.7968C27.0906 27.8286 27.147 27.8832 27.1982 27.9626C27.2476 28.0419 27.2952 28.1548 27.3375 28.3047H27.6726V26.7741H27.3375C27.3093 26.9222 27.2617 27.0368 27.1982 27.1161C27.1312 27.1955 27.0571 27.2501 26.976 27.2819C26.8948 27.3136 26.812 27.3313 26.7291 27.3366C26.6462 27.3419 26.5722 27.3436 26.5087 27.3418H25.2425V24.4374H27.0942C27.2828 24.4357 27.4609 24.4444 27.6302 24.4638C27.7978 24.4832 27.9494 24.5239 28.0905 24.5838C28.2281 24.6438 28.3479 24.7301 28.4485 24.8483C28.5472 24.9629 28.6231 25.1163 28.6742 25.3068H29.0181V23.9613C28.8982 23.956 28.8047 23.9542 28.7394 23.956C28.6724 23.9577 28.6196 23.9631 28.5825 23.9684C28.5437 23.9754 28.5085 23.9806 28.4767 23.9895C28.445 23.9983 28.4026 24.0071 28.3515 24.0124C28.2986 24.0212 28.2263 24.0301 28.1328 24.0336C28.0394 24.0389 27.9124 24.0424 27.7519 24.0424H23.7647ZM32.2276 24.0424H30.3953V24.3863C30.4976 24.3881 30.5929 24.4127 30.6846 24.4533C30.7745 24.4973 30.8486 24.5591 30.9033 24.649C30.9615 24.7372 30.9897 24.8518 30.9932 24.9947V29.9835C30.9932 30.1069 30.9791 30.2269 30.9526 30.3415C30.9226 30.4561 30.8645 30.5549 30.7798 30.6343C30.6934 30.7154 30.5646 30.7647 30.3953 30.7824V31.1281H31.9931V30.7824C31.8978 30.7771 31.8027 30.7524 31.7092 30.7048C31.6175 30.6571 31.5416 30.576 31.4816 30.4614C31.4199 30.3468 31.3882 30.1881 31.3864 29.9835V24.4374H31.4164L34.0793 31.2091H34.4126L37.2165 24.4268H37.2465V29.9641C37.2465 30.1705 37.2148 30.3327 37.1566 30.4509C37.0966 30.5672 37.0208 30.6519 36.9308 30.7013C36.8409 30.7507 36.7474 30.7771 36.6504 30.7824V31.1281H38.7155V30.7824C38.6079 30.7771 38.5109 30.7471 38.421 30.6907C38.3311 30.6325 38.2587 30.5461 38.2041 30.4279C38.1494 30.3098 38.1194 30.1546 38.1176 29.9641V25.2063C38.1159 25.0564 38.1318 24.9224 38.167 24.806C38.2005 24.6896 38.2605 24.5961 38.3487 24.5203C38.4368 24.448 38.5585 24.4039 38.7155 24.3863V24.0424H36.9026L34.5343 29.8019H34.4937L32.2276 24.0424ZM43.0783 23.9613H42.8755C42.8261 24.0177 42.7627 24.0741 42.6833 24.1323C42.604 24.1905 42.5175 24.2434 42.4276 24.2928C42.3359 24.3404 42.2495 24.3739 42.1666 24.3969V24.7407C42.2354 24.739 42.2918 24.7495 42.3376 24.7707C42.3853 24.7918 42.4082 24.8342 42.41 24.8924C42.4117 24.91 42.4064 24.9347 42.3941 24.97C42.3835 25.0035 42.3571 25.0617 42.3183 25.1463L40.0416 30.0647C40.0187 30.1176 39.9834 30.181 39.9376 30.2586C39.8917 30.3344 39.8335 30.4121 39.7665 30.4879C39.6995 30.5655 39.6219 30.6308 39.5337 30.6872C39.4455 30.7419 39.3486 30.7736 39.241 30.7824V31.1281H40.8105V30.7824C40.6941 30.7594 40.6077 30.7224 40.5512 30.6766C40.493 30.6307 40.456 30.5832 40.4402 30.532C40.4225 30.4826 40.4137 30.4385 40.4155 30.3997C40.4137 30.3856 40.4208 30.3539 40.4349 30.301C40.449 30.2481 40.4842 30.1634 40.5371 30.0435L40.9322 29.1846H44.4538L44.8594 30.0947C44.8894 30.1652 44.9141 30.2287 44.9282 30.2798C44.9441 30.331 44.9511 30.368 44.9511 30.3874C44.9511 30.4667 44.9458 30.5302 44.93 30.5831C44.9159 30.6343 44.8806 30.6784 44.8294 30.7101C44.7765 30.7419 44.6972 30.7665 44.5861 30.7824V31.1281H46.57V30.7824C46.4483 30.7753 46.3443 30.7383 46.2508 30.6713C46.1609 30.606 46.0797 30.5197 46.0092 30.4086C45.9351 30.2992 45.8716 30.1741 45.8099 30.0347L43.0783 23.9613ZM44.2722 28.7896H41.1138L42.6639 25.4585H42.775L44.2722 28.7896ZM45.69 25.328H46.0339C46.0657 25.1605 46.1203 25.0105 46.1979 24.8748C46.2755 24.7425 46.3902 24.6349 46.5383 24.5573C46.6864 24.4797 46.8821 24.4392 47.1273 24.4374H48.5645V29.9641C48.5663 30.1158 48.5504 30.2498 48.5151 30.3644C48.4799 30.4791 48.4199 30.5743 48.33 30.6448C48.2436 30.7154 48.1184 30.763 47.9579 30.7824V31.1281H50.0317V30.7824C49.8695 30.7665 49.7425 30.7207 49.6578 30.6466C49.5697 30.5743 49.5115 30.4791 49.4798 30.3627C49.448 30.2445 49.4339 30.114 49.4356 29.9641V24.4374H50.8623C51.0828 24.4392 51.2662 24.4709 51.409 24.5326C51.5518 24.5961 51.6629 24.6738 51.7441 24.7672C51.8252 24.8625 51.8816 24.9594 51.9151 25.0582C51.9468 25.1604 51.9645 25.2504 51.9663 25.328H52.3084V23.9613L50.0123 24.0424H47.9879L45.69 23.9613V25.328ZM52.9679 24.0424V24.3863C53.1249 24.4039 53.2483 24.448 53.3382 24.5203C53.4264 24.5961 53.4882 24.6896 53.5234 24.806C53.5605 24.9224 53.5781 25.0564 53.5746 25.2063V29.9641C53.5781 30.114 53.5605 30.2445 53.5234 30.3627C53.4882 30.4791 53.4264 30.5743 53.3382 30.6466C53.2483 30.7207 53.1249 30.7665 52.9679 30.7824V31.1281H55.0435V30.7824C54.8866 30.7665 54.7631 30.7207 54.6767 30.6502C54.5903 30.5779 54.5286 30.4826 54.4951 30.368C54.4616 30.2498 54.4439 30.1158 54.4457 29.9641V29.7014L58.5052 25.9557H58.5352V29.9641C58.537 30.1105 58.5194 30.241 58.4859 30.3591C58.4506 30.4791 58.3906 30.5761 58.3007 30.6502C58.2125 30.7243 58.0873 30.7683 57.9268 30.7824V31.1281H60.0024V30.7824C59.8349 30.763 59.7097 30.7154 59.6233 30.6448C59.5369 30.5743 59.4787 30.4791 59.4487 30.3644C59.417 30.2498 59.4046 30.1158 59.4046 29.9641V25.2063C59.4046 25.0564 59.4187 24.9224 59.4522 24.806C59.4822 24.6896 59.5404 24.5961 59.6286 24.5203C59.715 24.448 59.8402 24.4039 60.0024 24.3863V24.0424H57.9268V24.3863C58.0414 24.3969 58.142 24.4303 58.2337 24.485C58.3254 24.5397 58.3994 24.612 58.4523 24.7019C58.507 24.7918 58.5334 24.8906 58.5352 25.0035V25.328L54.4757 29.0613H54.4457V25.2063C54.4439 25.0564 54.4598 24.9224 54.4898 24.806C54.5216 24.6896 54.5815 24.5961 54.6679 24.5203C54.7543 24.448 54.8795 24.4039 55.0435 24.3863V24.0424H52.9679ZM60.662 24.0424V24.3863C60.8242 24.4039 60.9494 24.448 61.0376 24.5203C61.1222 24.5961 61.1822 24.6896 61.214 24.806C61.2457 24.9224 61.2598 25.0564 61.258 25.2063V26.4918C61.2563 26.6594 61.2686 26.8286 61.2951 27.0032C61.3215 27.176 61.3762 27.3418 61.4591 27.5023C61.5402 27.6628 61.6637 27.8038 61.8241 27.9308C61.9881 28.056 62.2033 28.1566 62.4713 28.2307C62.7394 28.3047 63.0744 28.3435 63.4747 28.3435C63.7445 28.3435 64.0038 28.3206 64.2524 28.2783C64.4975 28.2359 64.7338 28.1795 64.9525 28.1125C65.173 28.0455 65.374 27.975 65.5609 27.8992V29.9641C65.5609 30.1193 65.5433 30.2551 65.5062 30.3715C65.471 30.4879 65.4093 30.5814 65.3211 30.6519C65.2329 30.7225 65.113 30.7665 64.9631 30.7824V31.1281H67.037V30.7824C66.8183 30.7612 66.6631 30.6784 66.5661 30.5373C66.4744 30.3944 66.4285 30.204 66.4321 29.9641V25.2063C66.4285 25.1269 66.4356 25.0405 66.4497 24.9524C66.4638 24.8642 66.4903 24.7777 66.5344 24.6966C66.5749 24.6155 66.6367 24.5467 66.7178 24.4903C66.7971 24.4356 66.9047 24.4004 67.037 24.3863V24.0424H64.9631V24.3863C65.1254 24.4039 65.2523 24.4516 65.3387 24.5239C65.4251 24.5997 65.4851 24.6931 65.5168 24.8112C65.5468 24.9276 65.5609 25.0581 65.5609 25.2063V27.423C65.4304 27.4865 65.2876 27.5481 65.1289 27.6046C64.9737 27.6645 64.8097 27.7158 64.6404 27.7616C64.4711 27.8057 64.3053 27.8409 64.1378 27.8691C63.972 27.8956 63.8168 27.9079 63.6669 27.9079C63.3266 27.9079 63.0515 27.8638 62.8469 27.7792C62.6388 27.6963 62.4854 27.587 62.3814 27.4547C62.2791 27.3172 62.2103 27.1743 62.175 27.0192C62.1415 26.8657 62.1257 26.7158 62.1274 26.573V25.2063C62.1274 25.0564 62.1451 24.9224 62.1786 24.806C62.2121 24.6896 62.272 24.5961 62.3602 24.5203C62.4466 24.448 62.5683 24.4039 62.727 24.3863V24.0424H60.662ZM68.0897 24.0424V24.3863C68.2573 24.3916 68.386 24.4286 68.4724 24.4991C68.5606 24.5696 68.6206 24.6667 68.6506 24.7902C68.6841 24.9118 68.6999 25.0493 68.6981 25.2063V29.9641C68.6999 30.114 68.6805 30.2445 68.6417 30.3627C68.6029 30.4791 68.5394 30.5743 68.4495 30.6466C68.3613 30.7207 68.2414 30.7665 68.0897 30.7824V31.1281H73.8193L73.9304 29.6097H73.5865C73.5689 29.8354 73.5054 30.0224 73.4014 30.1687C73.2956 30.3151 73.1562 30.4315 72.9817 30.5144C72.8088 30.5955 72.6078 30.6519 72.3803 30.6854C72.1546 30.7171 71.9077 30.7348 71.6432 30.7331H69.5676V27.7369H70.8337C70.9448 27.7351 71.0418 27.7368 71.1265 27.7421C71.2111 27.7457 71.2869 27.7633 71.3504 27.7968C71.4157 27.8286 71.4721 27.8832 71.5233 27.9626C71.5744 28.0419 71.6202 28.1548 71.6625 28.3047H71.9976V26.7741H71.6625C71.6343 26.9222 71.5868 27.0368 71.5233 27.1161C71.4563 27.1955 71.3839 27.2501 71.3011 27.2819C71.2199 27.3136 71.137 27.3313 71.0541 27.3366C70.9713 27.3419 70.8972 27.3436 70.8337 27.3418H69.5676V24.4374H71.421C71.6079 24.4357 71.786 24.4444 71.9553 24.4638C72.1228 24.4832 72.2745 24.5239 72.4156 24.5838C72.5531 24.6438 72.673 24.7301 72.7736 24.8483C72.8723 24.9629 72.9481 25.1163 72.9993 25.3068H73.3431V23.9613C73.2232 23.956 73.1316 23.9542 73.0645 23.956C72.9975 23.9577 72.9464 23.9631 72.9076 23.9684C72.8706 23.9754 72.8353 23.9806 72.8018 23.9895C72.77 23.9983 72.7277 24.0071 72.6783 24.0124C72.6254 24.0212 72.5513 24.0301 72.4596 24.0336C72.3644 24.0389 72.2392 24.0424 72.0788 24.0424H68.0897ZM80.4694 25.7636V24.2046H80.3177C80.3107 24.2134 80.2983 24.2257 80.2754 24.2434C80.2542 24.2628 80.2278 24.2822 80.1907 24.298C80.1572 24.3157 80.1185 24.3245 80.0744 24.3245C80.0285 24.3245 79.9756 24.3228 79.9121 24.314C79.8522 24.3052 79.7764 24.291 79.6864 24.2698C79.5965 24.2504 79.4871 24.2205 79.3566 24.1834C79.1961 24.1376 79.0392 24.0971 78.8858 24.0618C78.7306 24.03 78.5772 24.0053 78.422 23.9859C78.2668 23.97 78.1081 23.9613 77.9388 23.9613C77.4468 23.963 76.9953 24.0565 76.5879 24.2381C76.1806 24.418 75.8244 24.6755 75.5281 25.0035C75.2283 25.3333 74.9973 25.7195 74.8368 26.1639C74.6728 26.61 74.5899 27.095 74.5882 27.6258C74.5917 28.1848 74.6781 28.6874 74.8509 29.1282C75.022 29.5709 75.2618 29.9466 75.5722 30.2552C75.8808 30.5655 76.2423 30.8001 76.6603 30.9641C77.0747 31.1263 77.5279 31.2074 78.0199 31.2091C78.4132 31.2056 78.7817 31.1475 79.115 31.0364C79.4501 30.9235 79.7534 30.7719 80.025 30.5814C80.2983 30.391 80.5364 30.1793 80.7427 29.943L80.5294 29.7102C80.3495 29.9183 80.1343 30.1052 79.8874 30.271C79.6405 30.435 79.3708 30.5673 79.0868 30.666C78.7994 30.7612 78.5084 30.8124 78.2122 30.8141C77.8295 30.8141 77.4785 30.7453 77.1593 30.6078C76.8401 30.4702 76.5668 30.2675 76.3323 29.9994C76.0995 29.7314 75.9214 29.3981 75.7926 29.0031C75.6674 28.6063 75.6022 28.1531 75.6004 27.6346C75.6022 27.1867 75.6498 26.7846 75.7415 26.4319C75.835 26.0774 75.962 25.7706 76.1224 25.5096C76.2829 25.2503 76.468 25.0353 76.6744 24.8642C76.8807 24.6914 77.0976 24.5643 77.3304 24.4815C77.5597 24.3968 77.7889 24.3563 78.0199 24.3563C78.2174 24.3545 78.4185 24.381 78.6213 24.4322C78.8276 24.4833 79.0251 24.5644 79.2173 24.6755C79.4095 24.7884 79.5824 24.9329 79.7393 25.111C79.8945 25.2891 80.025 25.5079 80.1255 25.7636H80.4694ZM81.6633 24.0424V24.3863C81.8784 24.4128 82.0336 24.4938 82.1253 24.6314C82.2188 24.7707 82.2628 24.9611 82.2611 25.2063V29.9641C82.2628 30.211 82.2135 30.4068 82.1165 30.5444C82.0212 30.6819 81.8696 30.763 81.6633 30.7824V31.1281H83.7283V30.7824C83.5714 30.7736 83.4479 30.733 83.3633 30.666C83.2733 30.599 83.2134 30.502 83.1798 30.3856C83.1463 30.2675 83.1287 30.1246 83.1305 29.9641V27.1302H83.3033C83.4268 27.1267 83.5537 27.1337 83.6877 27.1443C83.82 27.1567 83.954 27.1849 84.0881 27.2325C84.2221 27.2801 84.3579 27.3559 84.4919 27.4617C84.6242 27.5658 84.7546 27.7122 84.8834 27.8956C85.0086 28.0825 85.1302 28.3189 85.2466 28.6063C85.386 28.9537 85.5094 29.2605 85.6241 29.5356C85.7387 29.809 85.8551 30.047 85.9732 30.2498C86.0931 30.4526 86.2254 30.622 86.3753 30.7613C86.5234 30.8971 86.7033 31.0028 86.9079 31.0769C87.116 31.1509 87.3646 31.195 87.6555 31.2091C87.7702 31.2127 87.8743 31.2127 87.9712 31.2057C88.0647 31.1986 88.1634 31.1827 88.264 31.158V30.703C88.0647 30.7277 87.8901 30.7154 87.7367 30.6607C87.5815 30.6061 87.4457 30.5249 87.3258 30.4156C87.2059 30.3062 87.1018 30.1793 87.0101 30.0347C86.9219 29.8919 86.8426 29.7402 86.7756 29.585C86.7068 29.4299 86.6469 29.2782 86.5939 29.1301C86.5428 28.9855 86.4952 28.8531 86.4511 28.7385C86.3647 28.5145 86.2642 28.3012 86.1478 28.1001C86.0314 27.8956 85.8938 27.7122 85.7316 27.5482C85.5676 27.3842 85.3719 27.2466 85.1426 27.1355C84.9134 27.0244 84.64 26.9486 84.3261 26.9062V26.8463C84.4478 26.8128 84.5695 26.7564 84.6929 26.6824C84.8146 26.6065 84.9327 26.5201 85.0474 26.4231C85.1602 26.3261 85.2643 26.2255 85.3595 26.1215C85.4547 26.0192 85.5359 25.924 85.6011 25.8341C85.6981 25.6965 85.788 25.5695 85.8727 25.4496C85.9556 25.3297 86.049 25.2328 86.1425 25.1587C86.2395 25.0846 86.3524 25.0458 86.4811 25.0441C86.5428 25.0405 86.6098 25.0546 86.6821 25.0811C86.7544 25.1111 86.8179 25.1657 86.8779 25.2521C86.9361 25.3385 86.9749 25.4673 86.9978 25.6419H87.3417V24.0723C87.2306 24.03 87.1212 23.9983 87.0189 23.9825C86.9131 23.9684 86.8144 23.9595 86.7245 23.9613C86.4952 23.9648 86.2959 24.0125 86.1249 24.1059C85.9556 24.1994 85.8092 24.3228 85.684 24.4745C85.5606 24.6279 85.453 24.7918 85.3613 24.9682C85.2678 25.1463 85.1885 25.3191 85.1144 25.4902C85.0703 25.5943 85.0156 25.7071 84.9504 25.827C84.8869 25.9469 84.8076 26.0651 84.7123 26.1797C84.6171 26.2961 84.4989 26.3984 84.3578 26.4883C84.2168 26.58 84.0457 26.647 83.8429 26.6946C83.6419 26.7387 83.4074 26.7528 83.1305 26.7352V25.2063C83.1287 25.1234 83.1358 25.0369 83.1499 24.9505C83.1622 24.8606 83.1887 24.7777 83.2292 24.6966C83.268 24.6173 83.328 24.5503 83.4109 24.4938C83.4885 24.4392 83.5943 24.4039 83.7283 24.3863V24.0424H81.6633ZM92.0996 23.9613H91.8967C91.8491 24.0177 91.7839 24.0741 91.7045 24.1323C91.6269 24.1905 91.5387 24.2434 91.4488 24.2928C91.3571 24.3404 91.2707 24.3739 91.1896 24.3969V24.7407C91.2566 24.739 91.313 24.7495 91.3589 24.7707C91.4065 24.7918 91.4294 24.8342 91.4312 24.8924C91.433 24.91 91.4277 24.9347 91.4153 24.97C91.4047 25.0035 91.38 25.0617 91.3412 25.1463L89.0628 30.0647C89.0399 30.1176 89.0064 30.181 88.9588 30.2586C88.9129 30.3344 88.8547 30.4121 88.7877 30.4879C88.7207 30.5655 88.6431 30.6308 88.5549 30.6872C88.4685 30.7419 88.3698 30.7736 88.264 30.7824V31.1281H89.8317V30.7824C89.7153 30.7594 89.6307 30.7224 89.5725 30.6766C89.5143 30.6307 89.479 30.5832 89.4614 30.532C89.4437 30.4826 89.4349 30.4385 89.4385 30.3997C89.4349 30.3856 89.4437 30.3539 89.4561 30.301C89.4702 30.2481 89.5055 30.1634 89.5584 30.0435L89.9534 29.1846H93.4768L93.8824 30.0947C93.9124 30.1652 93.9353 30.2287 93.9494 30.2798C93.9653 30.331 93.9723 30.368 93.9723 30.3874C93.9741 30.4667 93.9671 30.5302 93.9512 30.5831C93.9371 30.6343 93.9036 30.6784 93.8507 30.7101C93.7978 30.7419 93.7184 30.7665 93.6073 30.7824V31.1281H95.5912V30.7824C95.4695 30.7753 95.3655 30.7383 95.2738 30.6713C95.1821 30.606 95.101 30.5197 95.0304 30.4086C94.9581 30.2992 94.8929 30.1741 94.8329 30.0347L92.0996 23.9613ZM93.2934 28.7896H90.135L91.6851 25.4585H91.7962L93.2934 28.7896ZM100.005 30.7824V31.1281H102.09V30.7824C101.957 30.77 101.852 30.7348 101.769 30.6784C101.688 30.622 101.626 30.5549 101.585 30.4738C101.543 30.3909 101.517 30.3063 101.502 30.2163C101.488 30.1281 101.481 30.0435 101.483 29.9641V25.2063C101.481 25.0581 101.497 24.9277 101.532 24.8095C101.568 24.6896 101.628 24.5944 101.716 24.5203C101.804 24.4445 101.929 24.4004 102.09 24.3863V24.0424H99.559C99.0653 24.0424 98.642 24.0759 98.2911 24.1411C97.9384 24.2081 97.6457 24.2999 97.4146 24.4198C97.1836 24.5379 97.0038 24.6772 96.8715 24.8394C96.7393 25.0017 96.6458 25.1781 96.5911 25.3703C96.5382 25.5625 96.5117 25.7654 96.5117 25.9752C96.5153 26.1956 96.5506 26.3967 96.6211 26.5766C96.6917 26.7547 96.7869 26.9134 96.9085 27.0509C97.0302 27.1867 97.1695 27.3013 97.3247 27.3948C97.4834 27.4865 97.6457 27.557 97.8185 27.6046C97.9913 27.6522 98.1624 27.6769 98.3352 27.6769V27.7069C98.2294 27.7316 98.1306 27.7668 98.0407 27.8145C97.9472 27.8603 97.852 27.9185 97.7568 27.989C97.5751 28.1284 97.4253 28.2818 97.3071 28.4476C97.1907 28.6151 97.0937 28.7897 97.0214 28.966C96.9473 29.1459 96.8856 29.3205 96.8345 29.4933C96.7851 29.6662 96.7357 29.8266 96.6863 29.9765C96.6387 30.1282 96.5805 30.2569 96.5117 30.368C96.4447 30.4755 96.3636 30.5672 96.2649 30.6395C96.1679 30.7154 96.062 30.7683 95.9474 30.8053C95.8328 30.8406 95.7147 30.8583 95.5912 30.853V31.1986C95.6935 31.2074 95.7923 31.2127 95.8893 31.211C95.988 31.211 96.0885 31.2091 96.1891 31.2091C96.316 31.2091 96.4447 31.1933 96.5717 31.1651C96.6987 31.1334 96.8221 31.0928 96.9385 31.0364C97.1255 30.95 97.2859 30.8318 97.42 30.6872C97.5575 30.5409 97.6739 30.3733 97.7709 30.1881C97.8714 30.0012 97.9561 29.802 98.0284 29.5939C98.1042 29.3805 98.1712 29.1671 98.2329 28.9519C98.2647 28.8338 98.3052 28.7121 98.3564 28.5816C98.4093 28.4511 98.4816 28.3294 98.5751 28.2148C98.6703 28.0984 98.7972 28.0031 98.9577 27.9308C99.1182 27.8585 99.321 27.8198 99.5696 27.818H100.612V29.9641C100.614 30.1176 100.594 30.2517 100.559 30.3698C100.522 30.488 100.458 30.5831 100.37 30.6536C100.279 30.7259 100.159 30.7683 100.005 30.7824ZM100.612 24.4374V27.423H99.4285C99.1534 27.4248 98.8995 27.3983 98.6685 27.3507C98.4375 27.2995 98.2365 27.2167 98.0672 27.102C97.8961 26.9874 97.7638 26.834 97.6686 26.6418C97.5734 26.4478 97.5275 26.2097 97.5258 25.9258C97.5275 25.6807 97.5611 25.4743 97.6334 25.3032C97.7039 25.1357 97.8009 24.9947 97.9208 24.8871C98.0372 24.7778 98.1712 24.6913 98.3193 24.6314C98.4674 24.5679 98.6191 24.5238 98.7743 24.4974C98.9313 24.4692 99.0776 24.4515 99.2223 24.4444C99.3633 24.4391 99.4903 24.4357 99.5996 24.4374H100.612Z" fill="#277525"/>
</g>
</g>
<g id="Group_6">
<g id="Group_7">
<path id="Vector_3" d="M0 57.305H26.5386V56.4073C26.1119 56.3632 25.7874 56.2451 25.5616 56.0511C25.3341 55.8625 25.179 55.6156 25.0996 55.3122C25.0167 55.0054 24.978 54.6615 24.9815 54.2717V41.8727C24.978 41.4724 25.022 41.125 25.1102 40.8199C25.1984 40.5131 25.3553 40.2714 25.5846 40.0827C25.8121 39.8976 26.1295 39.7795 26.5386 39.7354V38.8396H21.13V39.7354C21.5356 39.7707 21.8513 39.8853 22.0805 40.0705C22.3133 40.2592 22.4756 40.506 22.5726 40.8128C22.6696 41.1214 22.7172 41.4724 22.7136 41.8727V56.275H14.4041V41.8727C14.4006 41.4759 14.4341 41.1249 14.5135 40.8269C14.5928 40.5271 14.7462 40.2803 14.9702 40.0951C15.1959 39.9064 15.5257 39.7883 15.9613 39.7354V38.8396H10.5527V39.7354C10.9883 39.7742 11.3216 39.8888 11.5508 40.0827C11.7801 40.2767 11.937 40.5272 12.0163 40.8393C12.101 41.1479 12.1398 41.49 12.1345 41.8727V56.275H3.825V41.8727C3.82147 41.4812 3.86556 41.1338 3.95373 40.8305C4.04014 40.5272 4.19888 40.2803 4.42813 40.0881C4.65209 39.8977 4.97302 39.7795 5.38214 39.7354V38.8396H0V39.7354C0.409127 39.7795 0.730067 39.8977 0.955792 40.0881C1.18152 40.2803 1.34025 40.5272 1.43019 40.8305C1.5166 41.1338 1.56067 41.4812 1.55715 41.8727V54.2717C1.56067 54.6615 1.5166 55.0054 1.43019 55.3122C1.34025 55.6156 1.18152 55.8625 0.955792 56.0511C0.730067 56.2451 0.409127 56.3597 0 56.4073V57.305ZM29.2826 38.8396V39.7354C29.8452 39.8007 30.2454 40.0176 30.487 40.3773C30.7286 40.7371 30.8433 41.2343 30.838 41.8727V54.2717C30.8433 54.9172 30.7163 55.4233 30.4641 55.783C30.2137 56.1445 29.8187 56.3544 29.2826 56.4073V57.305H34.663V56.4073C34.2538 56.3809 33.9346 56.275 33.7089 56.1004C33.4797 55.9241 33.3227 55.6772 33.2346 55.3704C33.1464 55.0617 33.1023 54.6932 33.1076 54.2717V46.8846H33.5555C33.8765 46.8793 34.2115 46.8933 34.5589 46.9233C34.9011 46.9551 35.2485 47.0291 35.5994 47.1526C35.9521 47.276 36.303 47.4735 36.6504 47.7504C36.9978 48.0237 37.3417 48.4011 37.6715 48.886C37.9995 49.3692 38.3169 49.9829 38.6202 50.7359C38.98 51.6371 39.3062 52.4413 39.606 53.1537C39.9041 53.8662 40.2074 54.4869 40.516 55.0177C40.8228 55.5468 41.1702 55.9894 41.5617 56.3509C41.9479 56.7071 42.4153 56.9787 42.9514 57.1727C43.4927 57.3667 44.1381 57.4795 44.8982 57.5148C45.198 57.5289 45.4713 57.5289 45.72 57.5059C45.9669 57.4901 46.2226 57.4495 46.4818 57.3825V56.1974C45.9669 56.2627 45.5102 56.2274 45.1099 56.0863C44.7043 55.947 44.348 55.7336 44.0377 55.448C43.729 55.164 43.4574 54.8343 43.2194 54.4604C42.9866 54.0813 42.7803 53.6915 42.6039 53.2859C42.4276 52.8768 42.2689 52.4818 42.1331 52.0991C41.9973 51.72 41.8738 51.3779 41.7592 51.0781C41.5352 50.4926 41.2708 49.9389 40.9674 49.4116C40.6694 48.8861 40.3043 48.4064 39.8829 47.9796C39.4561 47.5476 38.9447 47.1913 38.3469 46.9021C37.7491 46.6111 37.0419 46.4137 36.2201 46.3043V46.1457C36.5411 46.0575 36.8567 45.9129 37.1777 45.7189C37.4951 45.5214 37.802 45.2974 38.1018 45.0417C38.3963 44.793 38.6643 44.5285 38.9147 44.2587C39.1616 43.9907 39.3715 43.7402 39.5425 43.5074C39.7947 43.1512 40.0328 42.8179 40.2515 42.5058C40.4719 42.1937 40.7099 41.9432 40.9551 41.7492C41.2055 41.5553 41.5 41.4548 41.8386 41.4495C42.0008 41.4407 42.1772 41.4759 42.3623 41.5465C42.551 41.6223 42.7186 41.7669 42.872 41.9909C43.0219 42.2148 43.1277 42.5534 43.1841 43.0066H44.0817V38.9172C43.7908 38.8043 43.5086 38.7249 43.237 38.6844C42.9637 38.6456 42.7098 38.6227 42.4717 38.628C41.8739 38.635 41.3554 38.7602 40.911 39.0053C40.4666 39.2469 40.0839 39.5679 39.763 39.9647C39.4385 40.365 39.1581 40.7917 38.92 41.252C38.6767 41.714 38.4668 42.1672 38.2764 42.6116C38.1582 42.8832 38.0171 43.1777 37.8513 43.4898C37.6838 43.8037 37.4775 44.1105 37.2271 44.4086C36.9802 44.7136 36.6733 44.98 36.303 45.2145C35.9344 45.4508 35.49 45.6272 34.9627 45.7507C34.439 45.8688 33.8236 45.904 33.1076 45.8546V41.8727C33.1023 41.6576 33.1199 41.4319 33.1552 41.2044C33.1852 40.9699 33.2557 40.7564 33.3615 40.5448C33.462 40.3367 33.6207 40.1621 33.8324 40.0175C34.0387 39.8729 34.3156 39.7795 34.663 39.7354V38.8396H29.2826ZM56.8758 38.628C55.8547 38.6315 54.9148 38.7637 54.056 39.0194C53.1989 39.2786 52.4212 39.6384 51.7264 40.0951C51.0316 40.5571 50.425 41.0898 49.8977 41.6964C49.3704 42.303 48.9295 42.9626 48.5786 43.6662C48.2224 44.3698 47.9579 45.0946 47.778 45.8424C47.6017 46.5901 47.5099 47.3325 47.5099 48.0714C47.5099 48.8103 47.6017 49.5544 47.778 50.3004C47.9579 51.0481 48.2224 51.7746 48.5786 52.4765C48.9295 53.1801 49.3704 53.8362 49.8977 54.4463C50.425 55.053 51.0316 55.5856 51.7264 56.0476C52.4212 56.5043 53.1989 56.8658 54.056 57.1197C54.9148 57.379 55.8547 57.5112 56.8758 57.5148C57.8951 57.5112 58.835 57.379 59.6938 57.1197C60.5544 56.8658 61.3285 56.5043 62.0233 56.0476C62.7182 55.5856 63.3301 55.053 63.8521 54.4463C64.3794 53.8362 64.8185 53.1801 65.1712 52.4765C65.5274 51.7746 65.7919 51.0481 65.9718 50.3004C66.1517 49.5544 66.2399 48.8103 66.2399 48.0714C66.2399 47.3325 66.1517 46.5901 65.9718 45.8424C65.7919 45.0946 65.5274 44.3698 65.1712 43.6662C64.8185 42.9626 64.3794 42.303 63.8521 41.6964C63.3301 41.0898 62.7182 40.5571 62.0233 40.0951C61.3285 39.6384 60.5544 39.2786 59.6938 39.0194C58.835 38.7637 57.8951 38.6315 56.8758 38.628ZM56.8758 39.656C57.7946 39.656 58.6551 39.8412 59.4593 40.2097C60.2705 40.5801 60.9864 41.1215 61.6054 41.8375C62.2261 42.5499 62.7093 43.4281 63.0656 44.4756C63.4165 45.5178 63.5964 46.717 63.6017 48.0714C63.5964 49.4257 63.4165 50.6213 63.0656 51.6688C62.7093 52.7093 62.2261 53.5928 61.6054 54.3052C60.9864 55.0212 60.2705 55.5626 59.4593 55.933C58.6551 56.3015 57.7946 56.4866 56.8758 56.4866C55.9605 56.4866 55.0947 56.3015 54.2887 55.933C53.4811 55.5626 52.7686 55.0212 52.1443 54.3052C51.5236 53.5928 51.0404 52.7093 50.6895 51.6688C50.3332 50.6213 50.1534 49.4257 50.1481 48.0714C50.1534 46.717 50.3332 45.5178 50.6895 44.4756C51.0404 43.4281 51.5236 42.5499 52.1443 41.8375C52.7686 41.1215 53.4811 40.5801 54.2887 40.2097C55.0947 39.8412 55.9605 39.656 56.8758 39.656ZM72.9675 38.628V39.5238C73.4014 39.5502 73.7364 39.6208 73.9692 39.739C74.202 39.8536 74.3642 40.0122 74.4524 40.2062C74.5405 40.3984 74.5793 40.6329 74.5758 40.8957C74.5793 41.028 74.5582 41.2432 74.5141 41.5395C74.4753 41.8322 74.3907 42.2449 74.2725 42.7792C74.1526 43.31 73.978 44.0012 73.754 44.8442C73.5248 45.6924 73.225 46.7293 72.8617 47.9673C72.733 48.3887 72.5919 48.8544 72.4385 49.3605C72.2798 49.8701 72.114 50.3885 71.9324 50.9211C71.749 51.4519 71.555 51.9616 71.3487 52.4554C71.1371 52.9474 70.9184 53.3865 70.6856 53.778C70.451 54.1695 70.2094 54.4816 69.952 54.7109C69.691 54.9384 69.4229 55.0582 69.1408 55.0618C69.035 55.0582 68.9309 55.0407 68.8251 55.0001C68.7193 54.9613 68.6135 54.9207 68.5077 54.8766C68.065 54.6932 67.6506 54.6138 67.2768 54.6403C66.9029 54.6667 66.6049 54.799 66.3809 55.0353C66.1517 55.2734 66.0335 55.6156 66.0283 56.0652C66.0335 56.3809 66.1217 56.6489 66.2928 56.8658C66.4638 57.0757 66.6931 57.2379 66.9788 57.349C67.2645 57.4583 67.5818 57.5148 67.9292 57.5148C68.5659 57.5112 69.1284 57.3666 69.6204 57.0792C70.1089 56.7988 70.5427 56.4126 70.9272 55.9153C71.3046 55.418 71.6431 54.8466 71.9429 54.2047C72.241 53.5628 72.5125 52.8769 72.7647 52.1521C73.0151 51.422 73.262 50.6866 73.4948 49.9442C73.7717 49.0783 74.0044 48.3306 74.1879 47.694C74.373 47.0556 74.5282 46.5019 74.6464 46.0222C74.7681 45.5478 74.8703 45.121 74.955 44.7384C75.0378 44.3574 75.1207 43.9871 75.2001 43.6256C75.2742 43.2694 75.3623 42.892 75.4628 42.497C75.5651 42.0967 75.6921 41.6434 75.842 41.1338H75.9214L81.1448 57.305H84.7846V56.4073C84.3279 56.4338 83.9628 56.3545 83.6983 56.1658C83.4338 55.9771 83.2239 55.7213 83.074 55.4004C82.9259 55.0759 82.7884 54.7284 82.6737 54.3511L77.5561 38.628H72.9675ZM94.9934 38.628H94.4661C94.3391 38.7726 94.1716 38.9224 93.9653 39.0705C93.7589 39.2257 93.535 39.3668 93.2969 39.4902C93.0588 39.6172 92.8349 39.7037 92.6197 39.7619V40.6577C92.7961 40.6542 92.9442 40.6806 93.0624 40.737C93.1858 40.7952 93.2476 40.901 93.2528 41.0545C93.2564 41.0985 93.244 41.1638 93.2123 41.2555C93.1823 41.3455 93.117 41.4936 93.0148 41.714L87.0807 54.5345C87.0189 54.672 86.9307 54.8379 86.8126 55.0407C86.6892 55.2382 86.5392 55.441 86.3629 55.6385C86.1866 55.8395 85.9855 56.0106 85.7563 56.1569C85.527 56.298 85.2731 56.3809 84.9962 56.4073V57.305H89.0839V56.4073C88.7806 56.3421 88.5567 56.2486 88.4068 56.1305C88.2569 56.0106 88.1617 55.8836 88.1176 55.7531C88.0735 55.6208 88.0506 55.5062 88.0559 55.4057C88.0506 55.3704 88.0682 55.2857 88.1035 55.1499C88.144 55.0141 88.2322 54.7938 88.3715 54.4816L89.4014 52.2384H98.5803L99.6366 54.6139C99.716 54.7991 99.7777 54.9613 99.8183 55.0971C99.8571 55.2293 99.8747 55.3263 99.8747 55.3792C99.8782 55.582 99.8606 55.7478 99.8218 55.8836C99.7813 56.0211 99.6949 56.1357 99.5573 56.2186C99.4215 56.3015 99.2099 56.3632 98.9242 56.4073V57.305H104.095V56.4073C103.777 56.3861 103.506 56.2892 103.264 56.1164C103.026 55.9471 102.816 55.7178 102.631 55.4321C102.442 55.1465 102.275 54.8202 102.118 54.4551L94.9934 38.628ZM98.1077 51.2103H89.8758L93.9124 42.5323H94.2016L98.1077 51.2103Z" fill="#277525"/>
</g>
</g>
</g>
</svg>
