<svg width="178" height="12" viewBox="0 0 178 12" fill="none" xmlns="http://www.w3.org/2000/svg">
<path d="M3.684 11.348V9.896C3.564 9.904 3.44 9.912 3.312 9.92C3.192 9.928 3.068 9.932 2.94 9.932C2.5 9.932 2.096 9.84 1.728 9.656C1.368 9.472 1.08 9.204 0.864 8.852C0.656 8.492 0.552 8.056 0.552 7.544V4.616C0.552 4.152 0.66 3.74 0.876 3.38C1.1 3.02 1.408 2.74 1.8 2.54C2.2 2.332 2.656 2.228 3.168 2.228C3.256 2.228 3.344 2.232 3.432 2.24C3.528 2.24 3.612 2.244 3.684 2.252V0.715999H5.412V2.252C5.484 2.244 5.56 2.24 5.64 2.24C5.72 2.232 5.804 2.228 5.892 2.228C6.428 2.228 6.892 2.332 7.284 2.54C7.684 2.74 7.992 3.02 8.208 3.38C8.432 3.74 8.544 4.152 8.544 4.616V7.556C8.544 8.068 8.436 8.504 8.22 8.864C8.012 9.216 7.732 9.484 7.38 9.668C7.036 9.852 6.652 9.944 6.228 9.944C6.092 9.944 5.956 9.94 5.82 9.932C5.692 9.924 5.556 9.916 5.412 9.908V11.348H3.684ZM3.444 8.6C3.484 8.6 3.528 8.6 3.576 8.6C3.624 8.592 3.66 8.584 3.684 8.576V3.536C3.652 3.528 3.608 3.524 3.552 3.524C3.504 3.516 3.46 3.512 3.42 3.512C3.22 3.512 3.048 3.556 2.904 3.644C2.76 3.732 2.648 3.856 2.568 4.016C2.488 4.176 2.448 4.368 2.448 4.592V7.58C2.448 7.772 2.48 7.944 2.544 8.096C2.608 8.248 2.712 8.372 2.856 8.468C3 8.556 3.196 8.6 3.444 8.6ZM5.664 8.588C5.896 8.588 6.084 8.548 6.228 8.468C6.372 8.38 6.476 8.26 6.54 8.108C6.612 7.956 6.648 7.78 6.648 7.58V4.592C6.648 4.352 6.612 4.152 6.54 3.992C6.468 3.832 6.364 3.712 6.228 3.632C6.1 3.552 5.944 3.512 5.76 3.512C5.696 3.512 5.636 3.516 5.58 3.524C5.524 3.524 5.468 3.528 5.412 3.536V8.564C5.452 8.572 5.492 8.58 5.532 8.588C5.58 8.588 5.624 8.588 5.664 8.588ZM9.86147 11V1.28H11.5535V6.848L14.0375 1.28H15.4295V11H13.7015V5.336L11.1695 11H9.86147ZM19.3756 11.18C18.6956 11.18 18.1596 11.052 17.7676 10.796C17.3836 10.54 17.1076 10.184 16.9396 9.728C16.7796 9.264 16.6996 8.732 16.6996 8.132V7.784H18.7156C18.7156 7.8 18.7156 7.848 18.7156 7.928C18.7156 8.008 18.7156 8.084 18.7156 8.156C18.7156 8.636 18.7636 8.98 18.8596 9.188C18.9556 9.388 19.1396 9.488 19.4116 9.488C19.5956 9.488 19.7316 9.44 19.8196 9.344C19.9156 9.248 19.9796 9.108 20.0116 8.924C20.0516 8.732 20.0716 8.492 20.0716 8.204C20.0716 7.716 19.9996 7.348 19.8556 7.1C19.7116 6.844 19.4116 6.712 18.9556 6.704C18.9476 6.696 18.9116 6.692 18.8476 6.692C18.7916 6.692 18.7236 6.692 18.6436 6.692C18.5636 6.692 18.4876 6.692 18.4156 6.692V5.384C18.4716 5.384 18.5276 5.384 18.5836 5.384C18.6396 5.384 18.6956 5.384 18.7516 5.384C18.8076 5.384 18.8596 5.384 18.9076 5.384C19.3796 5.376 19.6916 5.248 19.8436 5C19.9956 4.752 20.0716 4.384 20.0716 3.896C20.0716 3.52 20.0116 3.232 19.8916 3.032C19.7796 2.832 19.5876 2.732 19.3156 2.732C19.0516 2.732 18.8676 2.84 18.7636 3.056C18.6676 3.264 18.6156 3.544 18.6076 3.896C18.6076 3.912 18.6076 3.98 18.6076 4.1C18.6076 4.212 18.6076 4.324 18.6076 4.436H16.5916V3.848C16.5916 3.264 16.7036 2.772 16.9276 2.372C17.1596 1.964 17.4796 1.656 17.8876 1.448C18.2956 1.24 18.7756 1.136 19.3276 1.136C19.8956 1.136 20.3796 1.236 20.7796 1.436C21.1876 1.636 21.4996 1.932 21.7156 2.324C21.9316 2.708 22.0396 3.188 22.0396 3.764C22.0396 4.332 21.9236 4.812 21.6916 5.204C21.4596 5.588 21.1796 5.824 20.8516 5.912C21.0756 6 21.2756 6.132 21.4516 6.308C21.6356 6.476 21.7796 6.708 21.8836 7.004C21.9876 7.3 22.0396 7.68 22.0396 8.144C22.0396 8.736 21.9516 9.264 21.7756 9.728C21.6076 10.184 21.3276 10.54 20.9356 10.796C20.5436 11.052 20.0236 11.18 19.3756 11.18ZM23.256 11V1.28H24.948V6.848L27.432 1.28H28.824V11H27.096V5.336L24.564 11H23.256ZM30.3341 11V1.28H32.4821V5.132H32.6981L34.1261 1.28H36.2621L34.4861 5.84L36.3221 11H34.1141L32.6981 6.764H32.4821V11H30.3341ZM39.9493 11.144C39.2213 11.144 38.6453 11.016 38.2213 10.76C37.7973 10.504 37.4933 10.136 37.3093 9.656C37.1253 9.176 37.0333 8.604 37.0333 7.94V4.328C37.0333 3.656 37.1253 3.084 37.3093 2.612C37.4933 2.14 37.7973 1.78 38.2213 1.532C38.6453 1.276 39.2213 1.148 39.9493 1.148C40.6853 1.148 41.2653 1.276 41.6893 1.532C42.1213 1.78 42.4293 2.14 42.6133 2.612C42.7973 3.084 42.8893 3.656 42.8893 4.328V7.94C42.8893 8.604 42.7973 9.176 42.6133 9.656C42.4293 10.136 42.1213 10.504 41.6893 10.76C41.2653 11.016 40.6853 11.144 39.9493 11.144ZM39.9493 9.62C40.1733 9.62 40.3373 9.564 40.4413 9.452C40.5453 9.34 40.6133 9.196 40.6453 9.02C40.6773 8.844 40.6933 8.664 40.6933 8.48V3.8C40.6933 3.608 40.6773 3.428 40.6453 3.26C40.6133 3.084 40.5453 2.94 40.4413 2.828C40.3373 2.716 40.1733 2.66 39.9493 2.66C39.7413 2.66 39.5853 2.716 39.4813 2.828C39.3773 2.94 39.3093 3.084 39.2773 3.26C39.2453 3.428 39.2293 3.608 39.2293 3.8V8.48C39.2293 8.664 39.2413 8.844 39.2653 9.02C39.2973 9.196 39.3613 9.34 39.4573 9.452C39.5613 9.564 39.7253 9.62 39.9493 9.62ZM44.2446 7.412V6.164H47.3526V7.412H44.2446ZM48.7895 11L48.9575 1.28H51.2615L52.3295 6.932L53.4815 1.28H55.7015L55.8695 11H54.3455L54.1655 4.532L53.0375 11H51.6815L50.4815 4.484L50.3375 11H48.7895ZM56.8067 11L58.6427 1.28H61.0907L62.9027 11H60.9227L60.5987 8.948H59.1707L58.8347 11H56.8067ZM59.3627 7.664H60.3947L59.8787 3.872L59.3627 7.664ZM64.6077 11V2.876H63.1437V1.28H68.2197V2.876H66.7677V11H64.6077ZM69.0755 11V1.28H73.4435V2.744H71.2235V5.156H72.9155V6.644H71.2235V9.548H73.4675V11H69.0755ZM74.4067 11L74.5747 1.28H76.8787L77.9467 6.932L79.0987 1.28H81.3187L81.4867 11H79.9627L79.7827 4.532L78.6547 11H77.2987L76.0987 4.484L75.9547 11H74.4067ZM82.4239 11L84.2599 1.28H86.7079L88.5199 11H86.5399L86.2159 8.948H84.7879L84.4519 11H82.4239ZM84.9799 7.664H86.0119L85.4959 3.872L84.9799 7.664ZM90.2249 11V2.876H88.7609V1.28H93.8369V2.876H92.3849V11H90.2249ZM94.7287 11V1.28H96.4207V6.848L98.9047 1.28H100.297V11H98.5687V5.336L96.0367 11H94.7287ZM105.455 11V7.004C105.055 7.06 104.663 7.088 104.279 7.088C103.815 7.088 103.375 7 102.959 6.824C102.551 6.64 102.219 6.376 101.963 6.032C101.707 5.68 101.579 5.252 101.579 4.748V1.28H103.727V4.736C103.727 4.936 103.747 5.116 103.787 5.276C103.835 5.428 103.939 5.548 104.099 5.636C104.267 5.724 104.527 5.768 104.879 5.768C104.967 5.768 105.059 5.764 105.155 5.756C105.251 5.748 105.351 5.736 105.455 5.72V1.28H107.603V11H105.455ZM109.083 11V1.28H113.451V2.744H111.231V5.156H112.923V6.644H111.231V9.548H113.475V11H109.083ZM117.234 11.144C116.498 11.144 115.914 11.012 115.482 10.748C115.058 10.476 114.758 10.1 114.582 9.62C114.406 9.132 114.318 8.56 114.318 7.904V4.4C114.318 3.728 114.406 3.152 114.582 2.672C114.758 2.184 115.058 1.808 115.482 1.544C115.914 1.28 116.498 1.148 117.234 1.148C117.954 1.148 118.514 1.268 118.914 1.508C119.322 1.74 119.61 2.068 119.778 2.492C119.946 2.916 120.03 3.404 120.03 3.956V4.796H117.93V3.824C117.93 3.632 117.918 3.448 117.894 3.272C117.878 3.096 117.822 2.952 117.726 2.84C117.63 2.72 117.466 2.66 117.234 2.66C117.01 2.66 116.842 2.72 116.73 2.84C116.626 2.96 116.558 3.112 116.526 3.296C116.502 3.472 116.49 3.66 116.49 3.86V8.432C116.49 8.648 116.506 8.848 116.538 9.032C116.578 9.208 116.65 9.352 116.754 9.464C116.866 9.568 117.026 9.62 117.234 9.62C117.458 9.62 117.618 9.564 117.714 9.452C117.81 9.332 117.87 9.18 117.894 8.996C117.918 8.812 117.93 8.624 117.93 8.432V7.412H120.03V8.252C120.03 8.804 119.946 9.3 119.778 9.74C119.618 10.172 119.334 10.516 118.926 10.772C118.526 11.02 117.962 11.144 117.234 11.144ZM121.248 11V1.28H123.396V5.132H123.612L125.04 1.28H127.176L125.4 5.84L127.236 11H125.028L123.612 6.764H123.396V11H121.248ZM127.611 11L129.447 1.28H131.895L133.707 11H131.727L131.403 8.948H129.975L129.639 11H127.611ZM130.167 7.664H131.199L130.683 3.872L130.167 7.664ZM134.125 11L136.165 6.632C135.733 6.44 135.385 6.124 135.121 5.684C134.865 5.236 134.737 4.664 134.737 3.968C134.737 3.448 134.833 2.988 135.025 2.588C135.217 2.18 135.537 1.86 135.985 1.628C136.433 1.396 137.033 1.28 137.785 1.28H139.753V11H138.397V6.968H137.629C137.613 6.968 137.561 6.968 137.473 6.968C137.385 6.96 137.333 6.956 137.317 6.956L135.637 11H134.125ZM137.893 5.996H138.397V2.252H137.857C137.249 2.252 136.789 2.384 136.477 2.648C136.173 2.912 136.021 3.348 136.021 3.956C136.021 4.644 136.161 5.156 136.441 5.492C136.721 5.828 137.205 5.996 137.893 5.996ZM144.006 11V1.28H145.362V10.016H147.114V1.28H148.47V10.016H150.138V1.28H151.494V11H144.006ZM153.006 11V1.28H154.362V5.6H154.866L156.606 1.28H157.962L156.042 5.9L158.202 11H156.846L154.878 6.26H154.362V11H153.006ZM161.584 11.108C160.928 11.108 160.404 10.98 160.012 10.724C159.62 10.468 159.34 10.104 159.172 9.632C159.004 9.152 158.92 8.592 158.92 7.952V4.268C158.92 3.628 159.004 3.08 159.172 2.624C159.348 2.16 159.628 1.808 160.012 1.568C160.404 1.32 160.928 1.196 161.584 1.196C162.24 1.196 162.76 1.32 163.144 1.568C163.528 1.816 163.804 2.168 163.972 2.624C164.148 3.08 164.236 3.628 164.236 4.268V7.964C164.236 8.596 164.148 9.148 163.972 9.62C163.804 10.092 163.528 10.46 163.144 10.724C162.76 10.98 162.24 11.108 161.584 11.108ZM161.584 10.04C161.944 10.04 162.216 9.968 162.4 9.824C162.584 9.672 162.708 9.464 162.772 9.2C162.836 8.928 162.868 8.612 162.868 8.252V3.992C162.868 3.632 162.836 3.324 162.772 3.068C162.708 2.804 162.584 2.604 162.4 2.468C162.216 2.324 161.944 2.252 161.584 2.252C161.224 2.252 160.948 2.324 160.756 2.468C160.572 2.604 160.448 2.804 160.384 3.068C160.32 3.324 160.288 3.632 160.288 3.992V8.252C160.288 8.612 160.32 8.928 160.384 9.2C160.448 9.464 160.572 9.672 160.756 9.824C160.948 9.968 161.224 10.04 161.584 10.04ZM164.837 11V9.992C165.013 10 165.173 9.988 165.317 9.956C165.469 9.924 165.601 9.848 165.713 9.728C165.833 9.608 165.937 9.42 166.025 9.164C166.113 8.908 166.189 8.56 166.253 8.12C166.317 7.68 166.373 7.124 166.421 6.452L166.745 1.28H171.017V11H169.661V2.288H167.909L167.681 6.452C167.641 7.076 167.589 7.64 167.525 8.144C167.461 8.64 167.365 9.076 167.237 9.452C167.117 9.82 166.953 10.128 166.745 10.376C166.545 10.616 166.289 10.788 165.977 10.892C165.665 10.996 165.285 11.032 164.837 11ZM172.013 11L174.077 1.28H175.385L177.461 11H176.177L175.733 8.552H173.753L173.285 11H172.013ZM173.933 7.58H175.553L174.737 3.2L173.933 7.58Z" fill="black"/>
</svg>
